#!OML:ASF H:\Martial Arts Walks\Project 1\Capture day 1\Session 1\male.ASF
:FULLY-SPECIFIED
:DEGREES
1692
root -1.90025 13.81 -39.6162 15.4634 -29.7781 -18.594
lowerback 12.8381 1.63994 5.28509
upperback -0.629392 3.32936 4.73146
thorax -7.89109 1.48599 1.42263
lowerneck -4.22441 7.31115 0.397942
upperneck 6.30571 9.53688 3.07608
head 2.58967 4.84609 1.24154
rclavicle -3.34952e-014 1.59028e-015
rhumerus -77.7417 19.222 -96.4216
rradius 114.461
rwrist -52.6114
rhand -2.98278 -14.9611
rfingers 7.12502
rthumb 22.7305 -43.6421
lclavicle -3.34952e-014 1.59028e-015
lhumerus 3.60243 -9.67864 66.8719
lradius 38.7002
lwrist -34.2868
lhand -27.7073 29.8078
lfingers 7.12502
lthumb -1.1032 -300.215
rfemur 11.3742 -8.0317 14.5142
rtibia 33.9583
rfoot -20.5129 -30.417
rtoes -33.0491
lfemur -68.1865 32.2648 0.746804
ltibia 76.1736
lfoot -8.06433 -4.06373
ltoes -0.419023
1693
root -1.91169 13.8057 -39.6421 15.0749 -29.5147 -18.4248
lowerback 12.8046 1.4604 5.27848
upperback -0.597962 3.0892 4.80863
thorax -7.84527 1.37242 1.55578
lowerneck -4.25268 7.37351 0.468201
upperneck 6.3828 9.62238 2.94214
head 2.62988 4.88639 1.19526
rclavicle 1.83876e-014 -1.47101e-014
rhumerus -77.3131 19.3633 -96.1081
rradius 114
rwrist -52.6693
rhand -2.9051 -15.0108
rfingers 7.12502
rthumb 22.805 -43.6827
lclavicle 1.83876e-014 -1.47101e-014
lhumerus 3.49825 -9.91939 67.0261
lradius 38.2343
lwrist -33.977
lhand -28.3928 30.2995
lfingers 7.12502
lthumb -1.76525 -299.728
rfemur 11.5127 -8.34555 14.4103
rtibia 34.4095
rfoot -21.0184 -30.2698
rtoes -32.6712
lfemur -68.0743 32.1481 0.701082
ltibia 75.9592
lfoot -7.70663 -4.62506
ltoes -0.332022
1694
root -1.92046 13.8037 -39.662 14.6824 -29.303 -18.2709
lowerback 12.792 1.31405 5.28703
upperback -0.560132 2.89668 4.8857
thorax -7.80269 1.28112 1.6706
lowerneck -4.2741 7.4169 0.522042
upperneck 6.42583 9.68194 2.84756
head 2.65512 4.9145 1.1616
rclavicle -2.77305e-014 2.3059e-014
rhumerus -76.9927 19.5136 -95.8466
rradius 113.594
rwrist -52.7352
rhand -2.98139 -15.0875
rfingers 7.12502
rthumb 22.7318 -43.7684
lclavicle -2.77305e-014 2.3059e-014
lhumerus 3.44389 -9.98237 67.2449
lradius 37.6723
lwrist -34.1007
lhand -29.1698 31.1623
lfingers 7.12502
lthumb -2.51565 -298.873
rfemur 11.7423 -8.5503 14.3168
rtibia 34.6976
rfoot -21.428 -30.1609
rtoes -32.1787
lfemur -67.9159 32.1035 0.639759
ltibia 75.7537
lfoot -7.37163 -5.1168
ltoes -0.432435
1695
root -1.92672 13.8036 -39.6766 14.2835 -29.1604 -18.1143
lowerback 12.8085 1.21144 5.29793
upperback -0.518824 2.7641 4.95031
thorax -7.77125 1.21826 1.75871
lowerneck -4.30445 7.43932 0.573178
upperneck 6.44848 9.71216 2.77998
head 2.67414 4.92881 1.13561
rclavicle 1.45113e-014 2.26615e-014
rhumerus -76.7794 19.6507 -95.647
rradius 113.264
rwrist -52.8158
rhand -3.13883 -15.2051
rfingers 7.12502
rthumb 22.5807 -43.9045
lclavicle 1.45113e-014 2.26615e-014
lhumerus 3.44838 -9.83807 67.528
lradius 37.0402
lwrist -34.5957
lhand -29.8084 32.0764
lfingers 7.12502
lthumb -3.13242 -297.967
rfemur 12.0351 -8.62237 14.2202
rtibia 34.8526
rfoot -21.7561 -30.089
rtoes -31.619
lfemur -67.7164 32.139 0.536558
ltibia 75.5617
lfoot -7.07691 -5.49238
ltoes -0.721953
1696
root -1.93051 13.8045 -39.6868 13.8902 -29.0797 -17.9495
lowerback 12.8404 1.14004 5.30819
upperback -0.481072 2.67388 5.00399
thorax -7.75149 1.1755 1.82712
lowerneck -4.32796 7.45331 0.618655
upperneck 6.45486 9.73106 2.72494
head 2.68565 4.93767 1.11316
rclavicle 2.03754e-014 -2.10712e-014
rhumerus -76.6718 19.7988 -95.5167
rradius 113.017
rwrist -52.933
rhand -3.30951 -15.3578
rfingers 7.12502
rthumb 22.4169 -44.077
lclavicle 2.03754e-014 -2.10712e-014
lhumerus 3.48099 -9.48874 67.8582
lradius 36.3844
lwrist -35.2435
lhand -30.1871 32.7406
lfingers 7.12502
lthumb -3.49817 -297.308
rfemur 12.3604 -8.5602 14.125
rtibia 34.9086
rfoot -22.0101 -30.0675
rtoes -31.0449
lfemur -67.5088 32.2495 0.373172
ltibia 75.3966
lfoot -6.83534 -5.72882
ltoes -1.10721
1697
root -1.93203 13.8048 -39.693 13.5182 -29.0506 -17.7733
lowerback 12.865 1.09506 5.32215
upperback -0.448983 2.61817 5.04283
thorax -7.73247 1.14902 1.8711
lowerneck -4.3543 7.46191 0.678172
upperneck 6.45357 9.74263 2.6579
head 2.6966 4.94281 1.08434
rclavicle -3.08116e-014 3.33958e-014
rhumerus -76.648 19.9445 -95.4445
rradius 112.849
rwrist -53.098
rhand -3.42217 -15.5209
rfingers 7.12502
rthumb 22.3087 -44.253
lclavicle -3.08116e-014 3.33958e-014
lhumerus 3.53331 -9.01755 68.2062
lradius 35.7535
lwrist -35.7888
lhand -30.3355 32.9732
lfingers 7.12502
lthumb -3.64142 -297.078
rfemur 12.6872 -8.37945 14.032
rtibia 34.8969
rfoot -22.1924 -30.1081
rtoes -30.486
lfemur -67.3257 32.4192 0.140195
ltibia 75.2724
lfoot -6.65562 -5.82476
ltoes -1.55381
